<svg width="138" height="59" viewBox="0 0 138 59" fill="none" xmlns="http://www.w3.org/2000/svg">
<g clip-path="url(#clip0_267_4250)">
<path fill-rule="evenodd" clip-rule="evenodd" d="M60.3101 10.0697H55.2695V32.6634H58.4459V16.6874L61.1461 32.6634H64.5703L67.0729 16.4591V32.6634H70.5002V10.0697H65.4458L62.9746 26.111L60.3101 10.0697ZM76.4479 15.259C76.4479 13.6462 77.1718 13.031 78.3259 13.031C79.4801 13.031 80.2003 13.6462 80.2003 15.259V27.4596C80.2003 29.0757 79.494 29.6875 78.3259 29.6875C77.1573 29.6875 76.4479 29.0757 76.4479 27.4596V15.2793V15.259ZM72.823 27.2357C72.823 30.8505 74.7678 32.9154 78.3259 32.9154C81.8835 32.9154 83.8251 30.8403 83.8251 27.2357V15.4727C83.8251 11.858 81.8803 9.79306 78.3259 9.79306C74.771 9.79306 72.823 11.8681 72.823 15.4727V27.2357ZM85.7032 15.4727C85.7032 21.9317 92.7836 22.8 92.7836 27.4494C92.7836 29.0655 92.0565 29.6459 90.9056 29.6459C89.7551 29.6459 89.028 29.0655 89.028 27.4494V25.8378H85.6039V27.2211C85.6039 30.8369 87.4468 32.9018 91.0049 32.9018C94.5624 32.9018 96.4053 30.8257 96.4053 27.2211C96.4053 20.7666 89.3243 19.8938 89.3243 15.2444C89.3243 13.6327 89.9847 13.0175 91.1351 13.0175C92.2861 13.0175 92.9459 13.6327 92.9459 15.2444V16.1824H96.3732V15.4693C96.3732 11.8546 94.5624 9.78971 91.0364 9.78971C87.5103 9.78971 85.7032 11.8648 85.7032 15.4693V15.4727ZM102.103 22.9631H106.222V32.6488H109.91V10.0697H106.222V19.7555H102.103V10.0697H98.4809V32.6634H102.103V22.9765V22.9631ZM120.81 32.6488H124.53L119.493 20.1266L124.53 10.0563H120.909L116.179 19.9152V10.0697H112.544V32.6634H116.179V25.723L117.301 23.648L120.831 32.642L120.81 32.6488ZM134.223 10.0563H128.928L125.24 32.6488H128.569L129.193 28.5494H133.641L134.265 32.6488H137.922L134.216 10.0697L134.223 10.0563ZM131.399 14.0579L133.146 25.4745H129.656L131.399 14.0579Z" fill="white"/>
<path d="M56.67 37.9623H55.3477V42.6327H56.1773V39.3298L56.8862 42.6327H57.7857L58.4429 39.2832V42.6327H59.3419V37.9623H58.019L57.3704 41.2785L56.67 37.9623Z" fill="white"/>
<path d="M63.7546 38.63H65.4085V37.9623H62.7969V42.6327H65.4085V41.965H63.7546V40.5975H65.0689V39.9309H63.7546V38.63Z" fill="white"/>
<path d="M71.5318 37.9623H70.5794V39.8511L69.4434 37.9623H68.4824L69.6708 39.8777L68.4824 42.6327H69.4695L70.3434 40.5576L70.5794 40.918V42.6327H71.5318V40.918L71.7677 40.5642L72.6416 42.6327H73.6287L72.4489 39.8577L73.6287 37.9623H72.6678L71.5318 39.8511V37.9623Z" fill="white"/>
<path d="M80.4655 43.3106V42.0172H80.0566V37.9623H77.4338L77.2208 41.4047C77.2037 41.6812 77.153 41.8559 76.9912 42.0172H76.625V43.3106H77.5363V42.6779H79.5371V43.3106H80.4655ZM78.3109 38.6365H79.1031V42.0172H77.8769C78.0301 41.903 78.115 41.7484 78.1406 41.3912L78.3109 38.6365Z" fill="white"/>
<path d="M86.9189 37.9623H85.9323L85.5031 39.585L85.2805 40.6862L84.9885 39.5782L84.4738 37.9623H83.5391L84.8427 41.6122L84.8342 41.6537C84.7573 41.9976 84.4824 42.0662 84.0019 42.0381V42.701C85.3146 42.7685 85.6835 42.3426 85.9067 41.4908L86.9189 37.9623Z" fill="white"/>
<path d="M91.0943 40.6307H92.1737V42.6327H93.1405V37.9623H92.1737V39.9642H91.0943V37.9623H90.1445V42.6327H91.0943V40.6307Z" fill="white"/>
<path d="M98.7078 37.9623H97.3262L96.3652 42.6327H97.2317L97.395 41.7853H98.5529L98.7163 42.6327H99.6682L98.7078 37.9623ZM97.97 38.7897L98.4243 41.152H97.5151L97.97 38.7897Z" fill="white"/>
<path d="M104.309 37.9623H102.896V42.6327H103.855V40.8781H104.309C105.268 40.8781 105.739 40.4711 105.739 39.7235V39.1168C105.739 38.3693 105.268 37.9623 104.309 37.9623ZM104.309 38.63C104.614 38.63 104.779 38.7365 104.779 39.0703V39.7701C104.779 40.1039 104.614 40.2104 104.309 40.2104H103.855V38.63H104.309Z" fill="white"/>
<path d="M109.848 39.0253C109.848 38.6884 110.04 38.5608 110.346 38.5608C110.652 38.5608 110.844 38.6884 110.844 39.0253V41.5696C110.844 41.9065 110.652 42.0352 110.346 42.0352C110.04 42.0352 109.848 41.9065 109.848 41.5696V39.0253ZM108.887 41.5226C108.887 42.277 109.402 42.7079 110.346 42.7079C111.29 42.7079 111.806 42.277 111.806 41.5226V39.0723C111.806 38.3179 111.29 37.887 110.346 37.887C109.402 37.887 108.887 38.3179 108.887 39.0723V41.5226Z" fill="white"/>
<path d="M118.873 43.3106V42.0172H118.456V37.9623H115.78L115.563 41.4047C115.546 41.6812 115.494 41.8559 115.329 42.0172H114.955V43.3106H115.885V42.6779H117.926V43.3106H118.873ZM116.675 38.6365H117.483V42.0172H116.232C116.388 41.903 116.475 41.7484 116.502 41.3912L116.675 38.6365Z" fill="white"/>
<path d="M123.125 40.6307H124.204V42.6327H125.172V37.9623H124.204V39.9642H123.125V37.9623H122.176V42.6327H123.125V40.6307Z" fill="white"/>
<path d="M130.74 37.9623H129.359L128.398 42.6327H129.265L129.428 41.7853H130.586L130.749 42.6327H131.701L130.74 37.9623ZM130.003 38.7897L130.457 41.152H129.548L130.003 38.7897Z" fill="white"/>
<path d="M135.754 42.6327C135.807 42.5129 135.842 42.4385 135.842 42.0593V41.325C135.842 40.8914 136.034 40.7317 136.473 40.7317H136.805V42.6327H137.769V37.9623H136.315C135.316 37.9623 134.887 38.3161 134.887 39.037V39.4041C134.887 39.8844 135.088 40.1971 135.518 40.3512C135.036 40.5043 134.879 40.8581 134.879 41.345V42.0659C134.879 42.2922 134.87 42.4596 134.773 42.6327H135.754ZM136.805 38.63V40.064H136.429C136.07 40.064 135.851 39.9443 135.851 39.5705V39.1102C135.851 38.7764 136 38.63 136.341 38.63H136.805Z" fill="white"/>
<path d="M55.7726 45.9813C55.7726 45.6811 55.9194 45.567 56.1527 45.567C56.3865 45.567 56.5328 45.6811 56.5328 45.9813V48.248C56.5328 48.5482 56.3865 48.6623 56.1527 48.6623C55.9194 48.6623 55.7726 48.5482 55.7726 48.248V45.9813ZM55.0391 48.2058C55.0391 48.878 55.4325 49.2615 56.1527 49.2615C56.8734 49.2615 57.2668 48.878 57.2668 48.2058V46.0235C57.2668 45.3513 56.8734 44.9678 56.1527 44.9678C55.4325 44.9678 55.0391 45.3513 55.0391 46.0235V48.2058Z" fill="white"/>
<path d="M59.8938 47.4109H60.6962V49.1862H61.4153V45.0431H60.6962V46.8184H59.8938V45.0431H59.1875V49.1862H59.8938V47.4109Z" fill="white"/>
<path d="M63.1816 49.1862H63.2937C64.0171 49.1862 64.3198 48.8903 64.3465 48.1344L64.425 45.6348H65.0565V49.1805H65.7932V45.0431H63.7475L63.629 48.1692C63.6162 48.554 63.511 48.5956 63.1816 48.5956V49.1862Z" fill="white"/>
<path d="M69.4342 45.0431H68.374L67.6367 49.1862H68.3014L68.4268 48.4348H69.3157L69.4406 49.1862H70.1714L69.4342 45.0431ZM68.8678 45.7776L69.2169 47.8727H68.5186L68.8678 45.7776Z" fill="white"/>
<path d="M72.6852 49.1862H71.9395V45.0593H72.5865V47.6714L72.8502 46.7636L73.4449 45.0593H74.2435V49.1862H73.5901V46.2801L73.2928 47.2932L72.6852 49.1862ZM73.4316 44.1392C73.4118 44.358 73.2992 44.4107 73.1011 44.4107C72.91 44.4107 72.8107 44.358 72.7909 44.1392H72.342C72.3553 44.5409 72.5929 44.7945 73.1011 44.7945C73.6163 44.7945 73.8741 44.5409 73.8741 44.1392H73.4316Z" fill="white"/>
<path d="M76.8949 47.4109H77.725V49.1862H78.4687V45.0431H77.725V46.8184H76.8949V45.0431H76.1641V49.1862H76.8949V47.4109Z" fill="white"/>
<path d="M86.3036 49.1862V45.0431H85.5888V48.5936H84.9711V45.0431H84.2563V48.5936H83.6387V45.0431H82.9238V49.1862H86.3036Z" fill="white"/>
<path d="M89.9429 49.1862H90.6817L89.6813 46.8893L90.6817 45.0431H89.9621L89.0204 46.8488V45.0431H88.3008V49.1862H89.0204V47.9133L89.243 47.5348L89.9429 49.1862Z" fill="white"/>
<path d="M93.1576 45.9813C93.1576 45.6811 93.2991 45.567 93.5244 45.567C93.7502 45.567 93.8917 45.6811 93.8917 45.9813V48.248C93.8917 48.5482 93.7502 48.6623 93.5244 48.6623C93.2991 48.6623 93.1576 48.5482 93.1576 48.248V45.9813ZM92.4492 48.2058C92.4492 48.878 92.8293 49.2615 93.5244 49.2615C94.22 49.2615 94.6001 48.878 94.6001 48.2058V46.0235C94.6001 45.3513 94.22 44.9678 93.5244 44.9678C92.8293 44.9678 92.4492 45.3513 92.4492 46.0235V48.2058Z" fill="white"/>
<path d="M96.2891 49.1862H96.4012C97.1245 49.1862 97.4272 48.8903 97.4539 48.1344L97.5324 45.6348H98.1639V49.1805H98.9012V45.0431H96.8549L96.7364 48.1692C96.7236 48.554 96.6184 48.5956 96.2891 48.5956V49.1862Z" fill="white"/>
<path d="M102.544 45.0431H101.483L100.746 49.1862H101.411L101.536 48.4348H102.425L102.55 49.1862H103.281L102.544 45.0431ZM101.977 45.7776L102.326 47.8727H101.629L101.977 45.7776Z" fill="white"/>
<path d="M109.146 49.1862H109.885L108.884 46.8893L109.885 45.0431H109.166L108.224 46.8488V45.0431H107.504V49.1862H108.224V47.9133L108.446 47.5348L109.146 49.1862Z" fill="white"/>
<path d="M112.361 45.9813C112.361 45.6811 112.502 45.567 112.728 45.567C112.953 45.567 113.095 45.6811 113.095 45.9813V48.248C113.095 48.5482 112.953 48.6623 112.728 48.6623C112.502 48.6623 112.361 48.5482 112.361 48.248V45.9813ZM111.652 48.2058C111.652 48.878 112.032 49.2615 112.728 49.2615C113.423 49.2615 113.803 48.878 113.803 48.2058V46.0235C113.803 45.3513 113.423 44.9678 112.728 44.9678C112.032 44.9678 111.652 45.3513 111.652 46.0235V48.2058Z" fill="white"/>
<path d="M116.453 47.4109H117.283V49.1862H118.027V45.0431H117.283V46.8184H116.453V45.0431H115.723V49.1862H116.453V47.4109Z" fill="white"/>
<path d="M119.795 45.6356H120.549V49.1862H121.269V45.6356H122.023V45.0431H119.795V45.6356Z" fill="white"/>
<path d="M124.521 45.6356H125.786V45.0431H123.789V49.1862H125.786V48.5936H124.521V47.3805H125.526V46.7891H124.521V45.6356Z" fill="white"/>
<path d="M128.361 47.4109H129.191V49.1862H129.935V45.0431H129.191V46.8184H128.361V45.0431H127.631V49.1862H128.361V47.4109Z" fill="white"/>
<path d="M131.701 45.6356H132.454V49.1862H133.175V45.6356H133.929V45.0431H131.701V45.6356Z" fill="white"/>
<path d="M137.286 45.0431H136.258L135.543 49.1862H136.187L136.309 48.4348H137.171L137.292 49.1862H138.001L137.286 45.0431ZM136.737 45.7776L137.075 47.8727H136.398L136.737 45.7776Z" fill="white"/>
<path fill-rule="evenodd" clip-rule="evenodd" d="M51.8353 20.6663L45.2189 44.4855L31.6035 26.1847L38.8769 0L51.8353 20.6663Z" fill="url(#paint0_radial_267_4250)"/>
<path d="M51.8353 20.6663L45.2189 44.4855L31.6035 26.1847L38.8769 0L51.8353 20.6663Z" fill="url(#paint1_radial_267_4250)"/>
<path fill-rule="evenodd" clip-rule="evenodd" d="M0 20.6663L6.61637 44.4855L20.2334 26.1847L12.9584 0L0 20.6663Z" fill="url(#paint2_radial_267_4250)"/>
<path fill-rule="evenodd" clip-rule="evenodd" d="M0 20.6663L12.528 36.5404L12.1223 37.0847L0 20.6663Z" fill="white"/>
<path fill-rule="evenodd" clip-rule="evenodd" d="M51.8346 20.6663L39.3066 36.5404L39.7124 37.0847L51.8346 20.6663Z" fill="white"/>
<path fill-rule="evenodd" clip-rule="evenodd" d="M25.9283 58.999C26.0667 58.999 26.2019 58.9587 26.317 58.8833C26.4321 58.8079 26.5218 58.7011 26.5747 58.5754C26.6277 58.4503 26.6416 58.3121 26.6145 58.1791C26.5875 58.0462 26.5209 57.9237 26.4231 57.8279C26.3252 57.7321 26.2005 57.6666 26.0648 57.6404C25.929 57.6137 25.7884 57.6274 25.6605 57.6792C25.5327 57.731 25.4233 57.819 25.3464 57.932C25.2696 58.0446 25.2285 58.1776 25.2285 58.3132C25.2285 58.4948 25.3022 58.6691 25.4335 58.7979C25.5647 58.9267 25.7427 58.999 25.9283 58.999Z" fill="#E52B0E"/>
<path fill-rule="evenodd" clip-rule="evenodd" d="M51.8338 20.6663L25.9171 53.5062L12.957 37.0863L38.8754 0L51.8338 20.6663Z" fill="url(#paint3_radial_267_4250)"/>
<path fill-rule="evenodd" clip-rule="evenodd" d="M0 20.6663L25.9184 53.5062L38.8768 37.0863L12.9584 0L0 20.6663Z" fill="url(#paint4_radial_267_4250)"/>
<path fill-rule="evenodd" clip-rule="evenodd" d="M26.5471 17.6455L38.878 37.0863L25.918 18.544L26.5471 17.6455Z" fill="white"/>
</g>
<defs>
<radialGradient id="paint0_radial_267_4250" cx="0" cy="0" r="1" gradientUnits="userSpaceOnUse" gradientTransform="translate(43.2121 51.0162) rotate(-78.7237) scale(32.4149 8.91434)">
<stop stop-color="white"/>
<stop offset="1" stop-color="#C5C6C6"/>
</radialGradient>
<radialGradient id="paint1_radial_267_4250" cx="0" cy="0" r="1" gradientUnits="userSpaceOnUse" gradientTransform="translate(41.7194 22.2428) rotate(90) scale(22.2428 10.1159)">
<stop stop-color="#F2F2F2"/>
<stop offset="1" stop-color="#DFDFDF"/>
</radialGradient>
<radialGradient id="paint2_radial_267_4250" cx="0" cy="0" r="1" gradientUnits="userSpaceOnUse" gradientTransform="translate(8.11979 47.6017) rotate(-97.5964) scale(35.9814 12.1037)">
<stop stop-color="white"/>
<stop offset="1" stop-color="#D5D5D5"/>
</radialGradient>
<radialGradient id="paint3_radial_267_4250" cx="0" cy="0" r="1" gradientUnits="userSpaceOnUse" gradientTransform="translate(24.3002 58.8314) rotate(-68.0887) scale(48.3559 32.8693)">
<stop stop-color="white"/>
<stop offset="1" stop-color="#C4C4C4"/>
</radialGradient>
<radialGradient id="paint4_radial_267_4250" cx="0" cy="0" r="1" gradientUnits="userSpaceOnUse" gradientTransform="translate(38.8642 72.6637) rotate(-118.012) scale(61.6133 29.2866)">
<stop stop-color="white"/>
<stop offset="1" stop-color="#ECECEC"/>
</radialGradient>
<clipPath id="clip0_267_4250">
<rect width="138" height="59" fill="white"/>
</clipPath>
</defs>
</svg>
