<svg width="138" height="59" viewBox="0 0 138 59" fill="none" xmlns="http://www.w3.org/2000/svg">
<g clip-path="url(#clip0_267_4431)">
<path fill-rule="evenodd" clip-rule="evenodd" d="M60.3111 10.0698H55.2705V32.6635H58.4469V16.6875L61.1471 32.6635H64.5712L67.0739 16.4592V32.6635H70.5012V10.0698H65.4467L62.9756 26.1111L60.3111 10.0698ZM76.4488 15.2591C76.4488 13.6463 77.1727 13.0311 78.3269 13.0311C79.4811 13.0311 80.2013 13.6463 80.2013 15.2591V27.4596C80.2013 29.0758 79.495 29.6876 78.3269 29.6876C77.1583 29.6876 76.4488 29.0758 76.4488 27.4596V15.2794V15.2591ZM72.824 27.2358C72.824 30.8505 74.7688 32.9154 78.3269 32.9154C81.8845 32.9154 83.8261 30.8404 83.8261 27.2358V15.4728C83.8261 11.8581 81.8813 9.79315 78.3269 9.79315C74.772 9.79315 72.824 11.8682 72.824 15.4728V27.2358ZM85.7042 15.4728C85.7042 21.9318 92.7846 22.8001 92.7846 27.4495C92.7846 29.0656 92.0575 29.646 90.9065 29.646C89.7561 29.646 89.029 29.0656 89.029 27.4495V25.8378H85.6049V27.2212C85.6049 30.837 87.4477 32.9019 91.0058 32.9019C94.5634 32.9019 96.4063 30.8258 96.4063 27.2212C96.4063 20.7667 89.3253 19.8939 89.3253 15.2445C89.3253 13.6328 89.9857 13.0176 91.1361 13.0176C92.2871 13.0176 92.9469 13.6328 92.9469 15.2445V16.1825H96.3742V15.4694C96.3742 11.8547 94.5634 9.78979 91.0373 9.78979C87.5113 9.78979 85.7042 11.8648 85.7042 15.4694V15.4728ZM102.103 22.9632H106.223V32.6489H109.911V10.0698H106.223V19.7556H102.103V10.0698H98.4819V32.6635H102.103V22.9766V22.9632ZM120.811 32.6489H124.531L119.494 20.1267L124.531 10.0564H120.91L116.18 19.9153V10.0698H112.545V32.6635H116.18V25.7231L117.302 23.6481L120.832 32.6421L120.811 32.6489ZM134.224 10.0564H128.929L125.241 32.6489H128.57L129.194 28.5494H133.642L134.266 32.6489H137.923L134.217 10.0698L134.224 10.0564ZM131.4 14.0579L133.147 25.4746H129.657L131.4 14.0579Z" fill="#1E1E1E"/>
<path d="M56.67 37.9624H55.3477V42.6327H56.1773V39.3299L56.8862 42.6327H57.7857L58.4429 39.2833V42.6327H59.3419V37.9624H58.019L57.3704 41.2785L56.67 37.9624Z" fill="#1E1E1E"/>
<path d="M63.7566 38.63H65.4104V37.9624H62.7988V42.6327H65.4104V41.965H63.7566V40.5976H65.0709V39.931H63.7566V38.63Z" fill="#1E1E1E"/>
<path d="M71.5318 37.9624H70.5794V39.8511L69.4434 37.9624H68.4824L69.6708 39.8778L68.4824 42.6327H69.4695L70.3434 40.5576L70.5794 40.9181V42.6327H71.5318V40.9181L71.7677 40.5643L72.6416 42.6327H73.6287L72.4489 39.8578L73.6287 37.9624H72.6678L71.5318 39.8511V37.9624Z" fill="#1E1E1E"/>
<path d="M80.4655 43.3107V42.0172H80.0566V37.9624H77.4338L77.2208 41.4047C77.2037 41.6813 77.153 41.856 76.9912 42.0172H76.625V43.3107H77.5363V42.6779H79.5371V43.3107H80.4655ZM78.3109 38.6365H79.1031V42.0172H77.8769C78.0301 41.903 78.115 41.7485 78.1406 41.3913L78.3109 38.6365Z" fill="#1E1E1E"/>
<path d="M86.9179 37.9624H85.9313L85.5021 39.585L85.2795 40.6863L84.9875 39.5783L84.4729 37.9624H83.5381L84.8417 41.6122L84.8332 41.6538C84.7563 41.9976 84.4814 42.0662 84.0009 42.0381V42.7011C85.3137 42.7685 85.6826 42.3426 85.9057 41.4909L86.9179 37.9624Z" fill="#1E1E1E"/>
<path d="M91.0943 40.6308H92.1737V42.6327H93.1405V37.9624H92.1737V39.9643H91.0943V37.9624H90.1445V42.6327H91.0943V40.6308Z" fill="#1E1E1E"/>
<path d="M98.7087 37.9624H97.3271L96.3662 42.6327H97.2326L97.396 41.7854H98.5539L98.7173 42.6327H99.6691L98.7087 37.9624ZM97.971 38.7898L98.4253 41.1521H97.5161L97.971 38.7898Z" fill="#1E1E1E"/>
<path d="M104.308 37.9624H102.896V42.6327H103.854V40.8781H104.308C105.267 40.8781 105.738 40.4711 105.738 39.7236V39.1169C105.738 38.3694 105.267 37.9624 104.308 37.9624ZM104.308 38.63C104.613 38.63 104.778 38.7365 104.778 39.0704V39.7701C104.778 40.104 104.613 40.2105 104.308 40.2105H103.854V38.63H104.308Z" fill="#1E1E1E"/>
<path d="M109.849 39.0253C109.849 38.6884 110.041 38.5608 110.347 38.5608C110.653 38.5608 110.845 38.6884 110.845 39.0253V41.5696C110.845 41.9064 110.653 42.0352 110.347 42.0352C110.041 42.0352 109.849 41.9064 109.849 41.5696V39.0253ZM108.888 41.5226C108.888 42.277 109.403 42.7079 110.347 42.7079C111.291 42.7079 111.807 42.277 111.807 41.5226V39.0723C111.807 38.3179 111.291 37.887 110.347 37.887C109.403 37.887 108.888 38.3179 108.888 39.0723V41.5226Z" fill="#1E1E1E"/>
<path d="M118.873 43.3107V42.0172H118.456V37.9624H115.78L115.563 41.4047C115.546 41.6813 115.494 41.856 115.329 42.0172H114.955V43.3107H115.885V42.6779H117.926V43.3107H118.873ZM116.675 38.6365H117.483V42.0172H116.232C116.388 41.903 116.475 41.7485 116.502 41.3913L116.675 38.6365Z" fill="#1E1E1E"/>
<path d="M123.125 40.6308H124.204V42.6327H125.172V37.9624H124.204V39.9643H123.125V37.9624H122.176V42.6327H123.125V40.6308Z" fill="#1E1E1E"/>
<path d="M130.74 37.9624H129.359L128.398 42.6327H129.265L129.428 41.7854H130.586L130.749 42.6327H131.701L130.74 37.9624ZM130.003 38.7898L130.457 41.1521H129.548L130.003 38.7898Z" fill="#1E1E1E"/>
<path d="M135.754 42.6327C135.807 42.5129 135.842 42.4386 135.842 42.0593V41.3251C135.842 40.8915 136.034 40.7317 136.473 40.7317H136.805V42.6327H137.769V37.9624H136.315C135.316 37.9624 134.887 38.3162 134.887 39.0371V39.4042C134.887 39.8844 135.088 40.1972 135.518 40.3513C135.036 40.5044 134.879 40.8582 134.879 41.3451V42.066C134.879 42.2922 134.87 42.4597 134.773 42.6327H135.754ZM136.805 38.63V40.064H136.429C136.07 40.064 135.851 39.9443 135.851 39.5705V39.1103C135.851 38.7764 136 38.63 136.341 38.63H136.805Z" fill="#1E1E1E"/>
<path d="M55.7735 45.9813C55.7735 45.6811 55.9204 45.567 56.1536 45.567C56.3875 45.567 56.5337 45.6811 56.5337 45.9813V48.248C56.5337 48.5481 56.3875 48.6623 56.1536 48.6623C55.9204 48.6623 55.7735 48.5481 55.7735 48.248V45.9813ZM55.04 48.2058C55.04 48.878 55.4335 49.2615 56.1536 49.2615C56.8743 49.2615 57.2678 48.878 57.2678 48.2058V46.0235C57.2678 45.3512 56.8743 44.9678 56.1536 44.9678C55.4335 44.9678 55.04 45.3512 55.04 46.0235V48.2058Z" fill="#1E1E1E"/>
<path d="M59.8938 47.411H60.6962V49.1862H61.4153V45.0432H60.6962V46.8185H59.8938V45.0432H59.1875V49.1862H59.8938V47.411Z" fill="#1E1E1E"/>
<path d="M63.1826 49.1862H63.2947C64.0181 49.1862 64.3208 48.8904 64.3475 48.1345L64.426 45.6349H65.0575V49.1806H65.7942V45.0432H63.7485L63.63 48.1693C63.6172 48.5541 63.512 48.5957 63.1826 48.5957V49.1862Z" fill="#1E1E1E"/>
<path d="M69.4352 45.0432H68.3749L67.6377 49.1862H68.3023L68.4278 48.4349H69.3167L69.4416 49.1862H70.1724L69.4352 45.0432ZM68.8688 45.7776L69.2179 47.8728H68.5196L68.8688 45.7776Z" fill="#1E1E1E"/>
<path d="M72.6852 49.1861H71.9395V45.0593H72.5865V47.6714L72.8502 46.7636L73.4449 45.0593H74.2435V49.1861H73.5901V46.2801L73.2928 47.2932L72.6852 49.1861ZM73.4316 44.1392C73.4118 44.358 73.2992 44.4107 73.1011 44.4107C72.91 44.4107 72.8107 44.358 72.7909 44.1392H72.342C72.3553 44.5409 72.5929 44.7944 73.1011 44.7944C73.6163 44.7944 73.8741 44.5409 73.8741 44.1392H73.4316Z" fill="#1E1E1E"/>
<path d="M76.8949 47.411H77.725V49.1862H78.4687V45.0432H77.725V46.8185H76.8949V45.0432H76.1641V49.1862H76.8949V47.411Z" fill="#1E1E1E"/>
<path d="M86.3036 49.1862V45.0432H85.5888V48.5937H84.9711V45.0432H84.2563V48.5937H83.6387V45.0432H82.9238V49.1862H86.3036Z" fill="#1E1E1E"/>
<path d="M89.9429 49.1862H90.6817L89.6813 46.8894L90.6817 45.0432H89.9621L89.0204 46.8489V45.0432H88.3008V49.1862H89.0204V47.9134L89.243 47.5349L89.9429 49.1862Z" fill="#1E1E1E"/>
<path d="M93.1576 45.9813C93.1576 45.6811 93.2991 45.567 93.5244 45.567C93.7502 45.567 93.8917 45.6811 93.8917 45.9813V48.248C93.8917 48.5481 93.7502 48.6623 93.5244 48.6623C93.2991 48.6623 93.1576 48.5481 93.1576 48.248V45.9813ZM92.4492 48.2058C92.4492 48.878 92.8293 49.2615 93.5244 49.2615C94.22 49.2615 94.6001 48.878 94.6001 48.2058V46.0235C94.6001 45.3512 94.22 44.9678 93.5244 44.9678C92.8293 44.9678 92.4492 45.3512 92.4492 46.0235V48.2058Z" fill="#1E1E1E"/>
<path d="M96.2891 49.1862H96.4012C97.1245 49.1862 97.4272 48.8904 97.4539 48.1345L97.5324 45.6349H98.1639V49.1806H98.9012V45.0432H96.8549L96.7364 48.1693C96.7236 48.5541 96.6184 48.5957 96.2891 48.5957V49.1862Z" fill="#1E1E1E"/>
<path d="M102.543 45.0432H101.482L100.745 49.1862H101.41L101.535 48.4349H102.424L102.549 49.1862H103.28L102.543 45.0432ZM101.976 45.7776L102.325 47.8728H101.628L101.976 45.7776Z" fill="#1E1E1E"/>
<path d="M109.146 49.1862H109.885L108.884 46.8894L109.885 45.0432H109.166L108.224 46.8489V45.0432H107.504V49.1862H108.224V47.9134L108.446 47.5349L109.146 49.1862Z" fill="#1E1E1E"/>
<path d="M112.361 45.9813C112.361 45.6811 112.502 45.567 112.728 45.567C112.953 45.567 113.095 45.6811 113.095 45.9813V48.248C113.095 48.5481 112.953 48.6623 112.728 48.6623C112.502 48.6623 112.361 48.5481 112.361 48.248V45.9813ZM111.652 48.2058C111.652 48.878 112.032 49.2615 112.728 49.2615C113.423 49.2615 113.803 48.878 113.803 48.2058V46.0235C113.803 45.3512 113.423 44.9678 112.728 44.9678C112.032 44.9678 111.652 45.3512 111.652 46.0235V48.2058Z" fill="#1E1E1E"/>
<path d="M116.454 47.411H117.284V49.1862H118.028V45.0432H117.284V46.8185H116.454V45.0432H115.724V49.1862H116.454V47.411Z" fill="#1E1E1E"/>
<path d="M119.794 45.6357H120.548V49.1862H121.268V45.6357H122.022V45.0432H119.794V45.6357Z" fill="#1E1E1E"/>
<path d="M124.521 45.6357H125.786V45.0432H123.789V49.1862H125.786V48.5937H124.521V47.3805H125.526V46.7892H124.521V45.6357Z" fill="#1E1E1E"/>
<path d="M128.36 47.411H129.19V49.1862H129.935V45.0432H129.19V46.8185H128.36V45.0432H127.63V49.1862H128.36V47.411Z" fill="#1E1E1E"/>
<path d="M131.701 45.6357H132.454V49.1862H133.175V45.6357H133.929V45.0432H131.701V45.6357Z" fill="#1E1E1E"/>
<path d="M137.285 45.0432H136.257L135.542 49.1862H136.186L136.308 48.4349H137.17L137.291 49.1862H138L137.285 45.0432ZM136.736 45.7776L137.074 47.8728H136.397L136.736 45.7776Z" fill="#1E1E1E"/>
<path fill-rule="evenodd" clip-rule="evenodd" d="M51.8343 20.6663L45.2179 44.4855L31.6025 26.1847L38.8759 0L51.8343 20.6663Z" fill="url(#paint0_radial_267_4431)"/>
<path d="M51.8343 20.6663L45.2179 44.4855L31.6025 26.1847L38.8759 0L51.8343 20.6663Z" fill="url(#paint1_radial_267_4431)"/>
<path fill-rule="evenodd" clip-rule="evenodd" d="M0 20.6663L6.61637 44.4855L20.2334 26.1847L12.9584 0L0 20.6663Z" fill="url(#paint2_radial_267_4431)"/>
<path fill-rule="evenodd" clip-rule="evenodd" d="M0 20.6663L12.528 36.5403L12.1223 37.0846L0 20.6663Z" fill="#1E1E1E"/>
<path fill-rule="evenodd" clip-rule="evenodd" d="M51.8346 20.6663L39.3066 36.5403L39.7124 37.0846L51.8346 20.6663Z" fill="#1E1E1E"/>
<path fill-rule="evenodd" clip-rule="evenodd" d="M25.9283 58.9991C26.0667 58.9991 26.2019 58.9587 26.317 58.8834C26.4321 58.808 26.5218 58.7012 26.5747 58.5755C26.6277 58.4504 26.6416 58.3122 26.6145 58.1792C26.5875 58.0463 26.5209 57.9238 26.4231 57.828C26.3252 57.7321 26.2005 57.6667 26.0648 57.6405C25.929 57.6138 25.7884 57.6274 25.6605 57.6793C25.5327 57.7311 25.4233 57.8191 25.3464 57.9321C25.2696 58.0447 25.2285 58.1777 25.2285 58.3133C25.2285 58.4949 25.3022 58.6692 25.4335 58.798C25.5647 58.9268 25.7427 58.9991 25.9283 58.9991Z" fill="#E52B0E"/>
<path fill-rule="evenodd" clip-rule="evenodd" d="M51.8357 20.6663L25.919 53.5062L12.959 37.0863L38.8774 0L51.8357 20.6663Z" fill="url(#paint3_radial_267_4431)"/>
<path fill-rule="evenodd" clip-rule="evenodd" d="M0 20.6663L25.9184 53.5062L38.8768 37.0863L12.9584 0L0 20.6663Z" fill="url(#paint4_radial_267_4431)"/>
<path fill-rule="evenodd" clip-rule="evenodd" d="M26.5461 17.6455L38.877 37.0863L25.917 18.544L26.5461 17.6455Z" fill="#1E1E1E"/>
</g>
<defs>
<radialGradient id="paint0_radial_267_4431" cx="0" cy="0" r="1" gradientUnits="userSpaceOnUse" gradientTransform="translate(43.2111 51.0162) rotate(-78.7237) scale(32.4149 8.91434)">
<stop stop-color="white"/>
<stop offset="1" stop-color="#C5C6C6"/>
</radialGradient>
<radialGradient id="paint1_radial_267_4431" cx="0" cy="0" r="1" gradientUnits="userSpaceOnUse" gradientTransform="translate(41.7184 22.2428) rotate(90) scale(22.2428 10.1159)">
<stop stop-color="#111111"/>
<stop offset="1" stop-color="#585858"/>
</radialGradient>
<radialGradient id="paint2_radial_267_4431" cx="0" cy="0" r="1" gradientUnits="userSpaceOnUse" gradientTransform="translate(8.11979 47.6017) rotate(-97.5964) scale(35.9814 12.1037)">
<stop stop-color="#585858"/>
<stop offset="1" stop-color="#111111"/>
</radialGradient>
<radialGradient id="paint3_radial_267_4431" cx="0" cy="0" r="1" gradientUnits="userSpaceOnUse" gradientTransform="translate(24.3021 58.8314) rotate(-68.0887) scale(48.3559 32.8693)">
<stop/>
<stop offset="1" stop-color="#585858"/>
</radialGradient>
<radialGradient id="paint4_radial_267_4431" cx="0" cy="0" r="1" gradientUnits="userSpaceOnUse" gradientTransform="translate(38.8642 72.6637) rotate(-118.012) scale(61.6133 29.2866)">
<stop/>
<stop offset="1" stop-color="#585858"/>
</radialGradient>
<clipPath id="clip0_267_4431">
<rect width="138" height="59" fill="white"/>
</clipPath>
</defs>
</svg>
