<svg width="2585" height="1127" viewBox="0 0 2585 1127" fill="none" xmlns="http://www.w3.org/2000/svg">
<g clip-path="url(#clip0_153_14517)">
<path fill-rule="evenodd" clip-rule="evenodd" d="M1129.74 192.349H1035.32V623.927H1094.82V318.757L1145.4 623.927H1209.54L1256.42 314.396V623.927H1320.62V192.349H1225.94L1179.65 498.765L1129.74 192.349ZM1432.03 291.473C1432.03 260.666 1445.59 248.915 1467.21 248.915C1488.83 248.915 1502.32 260.666 1502.32 291.473V524.524C1502.32 555.395 1489.09 567.082 1467.21 567.082C1445.32 567.082 1432.03 555.395 1432.03 524.524V291.86V291.473ZM1364.13 520.248C1364.13 589.296 1400.56 628.739 1467.21 628.739C1533.85 628.739 1570.22 589.102 1570.22 520.248V295.555C1570.22 226.508 1533.79 187.064 1467.21 187.064C1400.62 187.064 1364.13 226.701 1364.13 295.555V520.248ZM1605.4 295.555C1605.4 418.933 1738.03 435.518 1738.03 524.33C1738.03 555.201 1724.41 566.287 1702.85 566.287C1681.3 566.287 1667.68 555.201 1667.68 524.33V493.545H1603.54V519.969C1603.54 589.038 1638.06 628.481 1704.71 628.481C1771.35 628.481 1805.87 588.823 1805.87 519.969C1805.87 396.677 1673.23 380.006 1673.23 291.194C1673.23 260.408 1685.6 248.657 1707.15 248.657C1728.71 248.657 1741.07 260.408 1741.07 291.194V309.111H1805.27V295.49C1805.27 226.443 1771.35 187 1705.3 187C1639.25 187 1605.4 226.637 1605.4 295.49V295.555ZM1912.59 438.634H1989.75V623.647H2058.84V192.349H1989.75V377.363H1912.59V192.349H1844.75V623.927H1912.59V438.891V438.634ZM2263.02 623.647H2332.7L2238.35 384.453L2332.7 192.092H2264.87L2176.27 380.414V192.349H2108.17V623.927H2176.27V491.353L2197.29 451.717L2263.41 623.518L2263.02 623.647ZM2514.27 192.092H2415.09L2346 623.647H2408.35L2420.05 545.341H2503.36L2515.06 623.647H2583.56L2514.14 192.349L2514.27 192.092ZM2461.37 268.529L2494.1 486.606H2428.71L2461.37 268.529Z" fill="#111111"/>
<path d="M1061.53 725.145H1036.76V814.356H1052.3V751.266L1065.58 814.356H1082.43L1094.74 750.376V814.356H1111.58V725.145H1086.8L1074.65 788.489L1061.53 725.145Z" fill="#111111"/>
<path d="M1194.27 737.898H1225.25V725.145H1176.33V814.356H1225.25V801.602H1194.27V775.481H1218.89V762.748H1194.27V737.898Z" fill="#111111"/>
<path d="M1339.93 725.145H1322.09V761.223L1300.81 725.145H1282.81L1305.07 761.732L1282.81 814.356H1301.3L1317.67 774.718L1322.09 781.603V814.356H1339.93V781.603L1344.35 774.845L1360.72 814.356H1379.21L1357.11 761.35L1379.21 725.145H1361.21L1339.93 761.223V725.145Z" fill="#111111"/>
<path d="M1507.27 827.306V802.599H1499.61V725.145H1450.48L1446.49 790.899C1446.17 796.182 1445.22 799.519 1442.19 802.599H1435.33V827.306H1452.4V815.22H1489.88V827.306H1507.27ZM1466.91 738.022H1481.75V802.599H1458.78C1461.65 800.418 1463.24 797.466 1463.72 790.642L1466.91 738.022Z" fill="#111111"/>
<path d="M1628.14 725.145H1609.66L1601.62 756.14L1597.45 777.176L1591.98 756.011L1582.34 725.145H1564.83L1589.25 794.863L1589.09 795.657C1587.65 802.225 1582.5 803.535 1573.5 802.998V815.662C1598.09 816.95 1605 808.815 1609.18 792.545L1628.14 725.145Z" fill="#111111"/>
<path d="M1706.36 776.116H1726.58V814.356H1744.69V725.145H1726.58V763.384H1706.36V725.145H1688.57V814.356H1706.36V776.116Z" fill="#111111"/>
<path d="M1849 725.145H1823.12L1805.12 814.356H1821.35L1824.41 798.17H1846.1L1849.16 814.356H1866.99L1849 725.145ZM1835.18 740.949L1843.69 786.073H1826.66L1835.18 740.949Z" fill="#111111"/>
<path d="M1953.88 725.145H1927.43V814.356H1945.39V780.84H1953.88C1971.85 780.84 1980.67 773.066 1980.67 758.787V747.198C1980.67 732.919 1971.85 725.145 1953.88 725.145ZM1953.88 737.898C1959.6 737.898 1962.7 739.932 1962.7 746.309V759.676C1962.7 766.053 1959.6 768.087 1953.88 768.087H1945.39V737.898H1953.88Z" fill="#111111"/>
<path d="M2057.67 745.45C2057.67 739.014 2061.27 736.577 2067 736.577C2072.73 736.577 2076.33 739.014 2076.33 745.45V794.05C2076.33 800.485 2072.73 802.944 2067 802.944C2061.27 802.944 2057.67 800.485 2057.67 794.05V745.45ZM2039.66 793.152C2039.66 807.563 2049.32 815.794 2067 815.794C2084.68 815.794 2094.34 807.563 2094.34 793.152V746.348C2094.34 731.937 2084.68 723.706 2067 723.706C2049.32 723.706 2039.66 731.937 2039.66 746.348V793.152Z" fill="#111111"/>
<path d="M2226.72 827.306V802.599H2218.91V725.145H2168.79L2164.72 790.899C2164.4 796.182 2163.42 799.519 2160.33 802.599H2153.33V827.306H2170.75V815.22H2208.98V827.306H2226.72ZM2185.55 738.022H2200.68V802.599H2177.25C2180.18 800.418 2181.81 797.466 2182.3 790.642L2185.55 738.022Z" fill="#111111"/>
<path d="M2306.38 776.116H2326.59V814.356H2344.71V725.145H2326.59V763.384H2306.38V725.145H2288.59V814.356H2306.38V776.116Z" fill="#111111"/>
<path d="M2449.01 725.145H2423.14L2405.14 814.356H2421.37L2424.42 798.17H2446.12L2449.17 814.356H2467.01L2449.01 725.145ZM2435.19 740.949L2443.71 786.073H2426.67L2435.19 740.949Z" fill="#111111"/>
<path d="M2542.94 814.356C2543.93 812.068 2544.58 810.648 2544.58 803.403V789.378C2544.58 781.095 2548.19 778.044 2556.4 778.044H2562.63V814.356H2580.68V725.145H2553.44C2534.74 725.145 2526.7 731.903 2526.7 745.673V752.685C2526.7 761.859 2530.47 767.833 2538.51 770.777C2529.49 773.701 2526.54 780.459 2526.54 789.76V803.53C2526.54 807.852 2526.37 811.051 2524.57 814.356H2542.94ZM2562.63 737.898V765.29H2555.58C2548.85 765.29 2544.75 763.003 2544.75 755.863V747.071C2544.75 740.694 2547.54 737.898 2553.94 737.898H2562.63Z" fill="#111111"/>
<path d="M1044.74 878.321C1044.74 872.587 1047.49 870.407 1051.86 870.407C1056.24 870.407 1058.98 872.587 1058.98 878.321V921.618C1058.98 927.352 1056.24 929.532 1051.86 929.532C1047.49 929.532 1044.74 927.352 1044.74 921.618V878.321ZM1031 920.812C1031 933.653 1038.37 940.978 1051.86 940.978C1065.36 940.978 1072.73 933.653 1072.73 920.812V879.127C1072.73 866.286 1065.36 858.961 1051.86 858.961C1038.37 858.961 1031 866.286 1031 879.127V920.812Z" fill="#111111"/>
<path d="M1121.93 905.628H1136.96V939.539H1150.43V860.4H1136.96V894.311H1121.93V860.4H1108.7V939.539H1121.93V905.628Z" fill="#111111"/>
<path d="M1183.52 939.539H1185.62C1199.17 939.539 1204.84 933.888 1205.34 919.448L1206.81 871.702H1218.64V939.431H1232.44V860.4H1194.12L1191.9 920.114C1191.66 927.463 1189.69 928.258 1183.52 928.258V939.539Z" fill="#111111"/>
<path d="M1300.65 860.4H1280.79L1266.98 939.539H1279.43L1281.78 925.187H1298.43L1300.77 939.539H1314.46L1300.65 860.4ZM1290.04 874.429L1296.58 914.45H1283.5L1290.04 874.429Z" fill="#111111"/>
<path d="M1361.53 939.539H1347.56V860.709H1359.68V910.604L1364.62 893.265L1375.76 860.709H1390.72V939.539H1378.48V884.028L1372.91 903.381L1361.53 939.539ZM1375.51 843.133C1375.14 847.313 1373.03 848.32 1369.32 848.32C1365.74 848.32 1363.88 847.313 1363.51 843.133H1355.1C1355.35 850.806 1359.8 855.65 1369.32 855.65C1378.97 855.65 1383.8 850.806 1383.8 843.133H1375.51Z" fill="#111111"/>
<path d="M1440.38 905.628H1455.93V939.539H1469.86V860.4H1455.93V894.311H1440.38V860.4H1426.69V939.539H1440.38V905.628Z" fill="#111111"/>
<path d="M1616.63 939.539V860.4H1603.24V928.221H1591.67V860.4H1578.28V928.221H1566.71V860.4H1553.32V939.539H1616.63Z" fill="#111111"/>
<path d="M1684.8 939.539H1698.64L1679.9 895.666L1698.64 860.4H1685.16L1667.52 894.891V860.4H1654.04V939.539H1667.52V915.225L1671.69 907.995L1684.8 939.539Z" fill="#111111"/>
<path d="M1745.01 878.321C1745.01 872.587 1747.66 870.407 1751.88 870.407C1756.11 870.407 1758.76 872.587 1758.76 878.321V921.618C1758.76 927.352 1756.11 929.532 1751.88 929.532C1747.66 929.532 1745.01 927.352 1745.01 921.618V878.321ZM1731.74 920.812C1731.74 933.653 1738.86 940.978 1751.88 940.978C1764.91 940.978 1772.03 933.653 1772.03 920.812V879.127C1772.03 866.286 1764.91 858.961 1751.88 858.961C1738.86 858.961 1731.74 866.286 1731.74 879.127V920.812Z" fill="#111111"/>
<path d="M1803.68 939.539H1805.78C1819.33 939.539 1825 933.888 1825.5 919.448L1826.97 871.702H1838.8V939.431H1852.61V860.4H1814.28L1812.06 920.114C1811.82 927.463 1809.85 928.258 1803.68 928.258V939.539Z" fill="#111111"/>
<path d="M1920.81 860.4H1900.95L1887.14 939.539H1899.6L1901.94 925.187H1918.59L1920.93 939.539H1934.62L1920.81 860.4ZM1910.2 874.429L1916.74 914.45H1903.67L1910.2 874.429Z" fill="#111111"/>
<path d="M2044.52 939.539H2058.37L2039.62 895.666L2058.37 860.4H2044.89L2027.24 894.891V860.4H2013.76V939.539H2027.24V915.225L2031.41 907.995L2044.52 939.539Z" fill="#111111"/>
<path d="M2104.73 878.321C2104.73 872.587 2107.38 870.407 2111.61 870.407C2115.83 870.407 2118.48 872.587 2118.48 878.321V921.618C2118.48 927.352 2115.83 929.532 2111.61 929.532C2107.38 929.532 2104.73 927.352 2104.73 921.618V878.321ZM2091.46 920.812C2091.46 933.653 2098.58 940.978 2111.61 940.978C2124.63 940.978 2131.75 933.653 2131.75 920.812V879.127C2131.75 866.286 2124.63 858.961 2111.61 858.961C2098.58 858.961 2091.46 866.286 2091.46 879.127V920.812Z" fill="#111111"/>
<path d="M2181.41 905.628H2196.95V939.539H2210.89V860.4H2196.95V894.311H2181.41V860.4H2167.72V939.539H2181.41V905.628Z" fill="#111111"/>
<path d="M2243.98 871.718H2258.1V939.539H2271.6V871.718H2285.71V860.4H2243.98V871.718Z" fill="#111111"/>
<path d="M2332.52 871.718H2356.22V860.4H2318.81V939.539H2356.22V928.221H2332.52V905.047H2351.35V893.751H2332.52V871.718Z" fill="#111111"/>
<path d="M2404.43 905.628H2419.98V939.539H2433.92V860.4H2419.98V894.311H2404.43V860.4H2390.75V939.539H2404.43V905.628Z" fill="#111111"/>
<path d="M2467.01 871.718H2481.12V939.539H2494.62V871.718H2508.74V860.4H2467.01V871.718Z" fill="#111111"/>
<path d="M2571.61 860.4H2552.35L2538.96 939.539H2551.03L2553.31 925.187H2569.45L2571.72 939.539H2585L2571.61 860.4ZM2561.32 874.429L2567.66 914.45H2554.98L2561.32 874.429Z" fill="#111111"/>
<path fill-rule="evenodd" clip-rule="evenodd" d="M970.969 394.761L847.032 849.749L591.99 500.173L728.234 0L970.969 394.761Z" fill="url(#paint0_radial_153_14517)"/>
<path d="M970.969 394.761L847.032 849.749L591.99 500.173L728.234 0L970.969 394.761Z" fill="url(#paint1_radial_153_14517)"/>
<path fill-rule="evenodd" clip-rule="evenodd" d="M0 394.761L123.937 849.749L379.009 500.173L242.735 0L0 394.761Z" fill="url(#paint2_radial_153_14517)"/>
<path fill-rule="evenodd" clip-rule="evenodd" d="M0 394.762L234.673 697.984L227.073 708.381L0 394.762Z" fill="#111111"/>
<path fill-rule="evenodd" clip-rule="evenodd" d="M970.969 394.762L736.296 697.984L743.896 708.381L970.969 394.762Z" fill="#111111"/>
<path fill-rule="evenodd" clip-rule="evenodd" d="M485.685 1126.98C488.277 1126.98 490.811 1126.21 492.967 1124.77C495.122 1123.33 496.802 1121.29 497.794 1118.89C498.786 1116.5 499.046 1113.86 498.54 1111.32C498.034 1108.78 496.786 1106.44 494.953 1104.61C493.12 1102.78 490.784 1101.53 488.242 1101.03C485.699 1100.52 483.064 1100.78 480.669 1101.77C478.274 1102.76 476.226 1104.44 474.786 1106.6C473.346 1108.75 472.577 1111.29 472.577 1113.88C472.577 1117.35 473.958 1120.68 476.416 1123.14C478.874 1125.6 482.208 1126.98 485.685 1126.98Z" fill="#E52B0E"/>
<path fill-rule="evenodd" clip-rule="evenodd" d="M970.969 394.761L485.5 1022.06L242.734 708.411L728.234 0L970.969 394.761Z" fill="url(#paint3_radial_153_14517)"/>
<path fill-rule="evenodd" clip-rule="evenodd" d="M0 394.761L485.5 1022.06L728.235 708.411L242.735 0L0 394.761Z" fill="url(#paint4_radial_153_14517)"/>
<path fill-rule="evenodd" clip-rule="evenodd" d="M497.253 337.058L728.234 708.411L485.469 354.221L497.253 337.058Z" fill="#111111"/>
</g>
<defs>
<radialGradient id="paint0_radial_153_14517" cx="0" cy="0" r="1" gradientUnits="userSpaceOnUse" gradientTransform="translate(809.44 974.496) rotate(-78.9366) scale(618.725 167.105)">
<stop stop-color="white"/>
<stop offset="1" stop-color="#C5C6C6"/>
</radialGradient>
<radialGradient id="paint1_radial_153_14517" cx="0" cy="0" r="1" gradientUnits="userSpaceOnUse" gradientTransform="translate(781.479 424.875) rotate(90) scale(424.875 189.49)">
<stop stop-color="#111111"/>
<stop offset="1" stop-color="#585858"/>
</radialGradient>
<radialGradient id="paint2_radial_153_14517" cx="0" cy="0" r="1" gradientUnits="userSpaceOnUse" gradientTransform="translate(152.099 909.273) rotate(-97.451) scale(687.075 226.801)">
<stop stop-color="#585858"/>
<stop offset="1" stop-color="#111111"/>
</radialGradient>
<radialGradient id="paint3_radial_153_14517" cx="0" cy="0" r="1" gradientUnits="userSpaceOnUse" gradientTransform="translate(455.212 1123.78) rotate(-68.4738) scale(921.211 617.354)">
<stop/>
<stop offset="1" stop-color="#585858"/>
</radialGradient>
<radialGradient id="paint4_radial_153_14517" cx="0" cy="0" r="1" gradientUnits="userSpaceOnUse" gradientTransform="translate(728 1388) rotate(-117.55) scale(1171.93 550.928)">
<stop/>
<stop offset="1" stop-color="#585858"/>
</radialGradient>
<clipPath id="clip0_153_14517">
<rect width="2585" height="1127" fill="white"/>
</clipPath>
</defs>
</svg>
