<svg width="36" height="37" viewBox="0 0 36 37" fill="none" xmlns="http://www.w3.org/2000/svg">
<path d="M28.5093 18.0127C28.5113 18.0127 28.5127 18.0127 28.5146 18.0127C28.6485 18.0127 28.7762 17.9565 28.8669 17.8581C28.9591 17.7583 29.0047 17.6244 28.9927 17.489C28.5108 12.1884 24.3141 7.99029 19.013 7.50741C18.8786 7.49685 18.7433 7.54053 18.6434 7.63317C18.5436 7.72533 18.4879 7.85541 18.4893 7.99125C18.5729 15.0357 19.5021 17.9143 28.5093 18.0127ZM28.5093 18.9861C19.5021 19.0845 18.5733 21.9631 18.4898 29.0076C18.4884 29.1434 18.5441 29.2735 18.6439 29.3656C18.7332 29.4477 18.8498 29.4933 18.9698 29.4933C18.9842 29.4933 18.9991 29.4928 19.0135 29.4914C24.3146 29.0085 28.5113 24.8109 28.9927 19.5098C29.0047 19.3744 28.9596 19.2405 28.8669 19.1407C28.7743 19.0408 28.6452 18.9914 28.5093 18.9861ZM16.9553 7.50981C11.6709 8.00661 7.48775 12.2037 7.00823 17.49C6.99623 17.6253 7.04135 17.7592 7.13399 17.8591C7.22471 17.9575 7.35287 18.0132 7.48631 18.0132C7.48823 18.0132 7.49015 18.0132 7.49207 18.0132C16.4695 17.91 17.3964 15.0328 17.4809 7.99317C17.4823 7.85733 17.4261 7.72677 17.3263 7.63461C17.2255 7.54245 17.0906 7.49733 16.9553 7.50981ZM7.49159 18.9856C7.34231 18.9688 7.22519 19.0399 7.13351 19.1397C7.04135 19.2396 6.99575 19.3735 7.00775 19.5088C7.48727 24.7951 11.6709 28.9922 16.9553 29.489C16.9701 29.4904 16.9855 29.4909 17.0004 29.4909C17.1204 29.4909 17.2365 29.4458 17.3258 29.3637C17.4257 29.2716 17.4818 29.141 17.4804 29.0052C17.3959 21.966 16.4695 19.0888 7.49159 18.9856Z" fill="white"/>
</svg>
