<svg width="36" height="36" viewBox="0 0 36 36" fill="none" xmlns="http://www.w3.org/2000/svg">
<path d="M18 7C15.8244 7 13.6976 7.64514 11.8887 8.8538C10.0798 10.0625 8.66994 11.7805 7.83735 13.7905C7.00475 15.8005 6.78695 18.0122 7.21135 20.146C7.63585 22.2798 8.68345 24.2398 10.2218 25.7782C11.7602 27.3165 13.7202 28.3642 15.854 28.7886C17.9878 29.2131 20.1995 28.9952 22.2095 28.1627C24.2195 27.3301 25.9374 25.9202 27.1461 24.1113C28.3548 22.3023 29 20.1756 29 18C28.9971 15.0835 27.8372 12.2873 25.7749 10.225C23.7127 8.1628 20.9165 7.00291 18 7ZM24.5329 15.4843V16.1949C24.5329 16.2493 24.522 16.3031 24.5009 16.3532C24.4797 16.4033 24.4488 16.4487 24.4098 16.4866C24.3708 16.5246 24.3247 16.5543 24.274 16.5741C24.2233 16.5939 24.1692 16.6034 24.1149 16.6019C22.9535 16.5196 21.8424 16.0955 20.9216 15.3831V20.5839C20.9214 21.1595 20.8066 21.7293 20.5837 22.2601C20.3609 22.7908 20.0344 23.2718 19.6236 23.6749C19.209 24.0881 18.7164 24.4147 18.1744 24.6356C17.6324 24.8566 17.0519 24.9675 16.4666 24.9619C15.2895 24.9598 14.1598 24.498 13.3184 23.6749C12.7831 23.1352 12.3976 22.4655 12.1997 21.7316C12.0018 20.9978 11.9984 20.225 12.1898 19.4894C12.3647 18.7832 12.7178 18.1342 13.2161 17.6051C13.5877 17.1509 14.0561 16.7855 14.5871 16.5356C15.1181 16.2857 15.6982 16.1577 16.2851 16.1608H17.1871V18.0341C17.1875 18.0885 17.1763 18.1424 17.1542 18.1921C17.1322 18.2418 17.0997 18.2863 17.0591 18.3225C17.0186 18.3587 16.9707 18.3859 16.9188 18.4022C16.8669 18.4184 16.8121 18.4235 16.7581 18.4169C16.2344 18.2596 15.67 18.3118 15.184 18.5624C14.698 18.8131 14.3283 19.2427 14.1529 19.7606C13.9774 20.2785 14.0099 20.8443 14.2435 21.3388C14.4771 21.8332 14.8936 22.2176 15.4051 22.411C15.7021 22.5815 16.0343 22.6816 16.3753 22.7047C16.6393 22.7157 16.9033 22.6827 17.1541 22.6035C17.5729 22.4625 17.9373 22.1942 18.1962 21.8361C18.4552 21.4779 18.5958 21.0478 18.5984 20.6059V11.1294C18.5982 11.0774 18.6083 11.026 18.6281 10.9779C18.6479 10.9299 18.677 10.8862 18.7136 10.8495C18.7503 10.8127 18.7939 10.7835 18.8419 10.7636C18.8899 10.7436 18.9413 10.7334 18.9933 10.7334H20.5498C20.651 10.7333 20.7484 10.772 20.8219 10.8416C20.8954 10.9112 20.9393 11.0063 20.9447 11.1074C21.0016 11.5927 21.1558 12.0615 21.3981 12.4858C21.6404 12.9102 21.9658 13.2812 22.3549 13.5769C22.8808 13.9717 23.5054 14.2138 24.16 14.2765C24.258 14.2849 24.3497 14.3285 24.4181 14.3993C24.4864 14.4701 24.5268 14.5632 24.5318 14.6615L24.5329 15.4843Z" fill="#FBFBFB"/>
</svg>
