<svg width="36" height="37" viewBox="0 0 36 37" fill="none" xmlns="http://www.w3.org/2000/svg">
<path d="M29.8727 24.0281C29.8437 23.9653 29.8166 23.9133 29.7914 23.8716C29.375 23.1205 28.5793 22.1986 27.4047 21.1056L27.3799 21.0805L27.3675 21.0682L27.3549 21.0557H27.3423C26.8092 20.5467 26.4716 20.2045 26.3303 20.0293C26.0716 19.6955 26.0137 19.3577 26.155 19.0154C26.2549 18.7568 26.6301 18.2106 27.2797 17.3761C27.6213 16.9338 27.892 16.5794 28.0918 16.3124C29.5331 14.3933 30.1579 13.167 29.9662 12.6329L29.8918 12.5081C29.8418 12.433 29.7127 12.3643 29.5046 12.3016C29.2961 12.239 29.0296 12.2287 28.7047 12.2704L25.106 12.2953C25.0477 12.2746 24.9644 12.2765 24.856 12.3016C24.7477 12.3266 24.6935 12.3392 24.6935 12.3392L24.6308 12.3706L24.5811 12.4082C24.5395 12.4331 24.4936 12.4769 24.4436 12.5395C24.3938 12.6019 24.3522 12.6751 24.319 12.7585C23.9272 13.7681 23.4817 14.7067 22.9817 15.5744C22.6735 16.0917 22.3904 16.5401 22.1319 16.9198C21.8737 17.2993 21.6571 17.5789 21.4823 17.7582C21.3072 17.9376 21.1492 18.0813 21.0073 18.1899C20.8657 18.2985 20.7575 18.3444 20.6826 18.3276C20.6076 18.3108 20.5369 18.2942 20.47 18.2775C20.3534 18.2024 20.2597 18.1002 20.189 17.9709C20.118 17.8416 20.0702 17.6788 20.0452 17.4827C20.0203 17.2865 20.0056 17.1178 20.0014 16.9759C19.9975 16.8342 19.9993 16.6337 20.0078 16.3751C20.0164 16.1163 20.0203 15.9413 20.0203 15.8495C20.0203 15.5324 20.0265 15.1882 20.0389 14.8169C20.0515 14.4457 20.0617 14.1515 20.0702 13.9348C20.0787 13.7178 20.0827 13.4883 20.0827 13.2463C20.0827 13.0044 20.068 12.8146 20.0389 12.6769C20.0102 12.5393 19.9661 12.4058 19.908 12.2764C19.8496 12.1471 19.7641 12.047 19.6519 11.976C19.5394 11.9051 19.3996 11.8488 19.2333 11.807C18.7917 11.7069 18.2294 11.6528 17.5462 11.6444C15.9968 11.6277 15.0012 11.7279 14.5597 11.9448C14.3848 12.0365 14.2265 12.1617 14.0849 12.3202C13.9349 12.5038 13.914 12.604 14.0223 12.6205C14.5222 12.6955 14.8761 12.8749 15.0844 13.1585L15.1595 13.3088C15.2178 13.4173 15.2761 13.6093 15.3345 13.8846C15.3927 14.1599 15.4303 14.4644 15.4469 14.798C15.4885 15.4071 15.4885 15.9286 15.4469 16.3624C15.4052 16.7963 15.3658 17.1342 15.3282 17.3761C15.2906 17.6181 15.2344 17.8142 15.1595 17.9643C15.0844 18.1145 15.0345 18.2063 15.0094 18.2396C14.9844 18.2729 14.9636 18.2939 14.9471 18.3021C14.8388 18.3437 14.7262 18.3649 14.6096 18.3649C14.4929 18.3649 14.3513 18.3064 14.1848 18.1895C14.0182 18.0727 13.8454 17.9122 13.6663 17.7077C13.4871 17.5032 13.2851 17.2175 13.0601 16.8504C12.8353 16.4833 12.602 16.0495 12.3604 15.5489L12.1605 15.1859C12.0355 14.9523 11.8649 14.6122 11.6483 14.1659C11.4315 13.7195 11.24 13.2876 11.0734 12.8705C11.0068 12.6953 10.9068 12.5619 10.7736 12.4701L10.711 12.4324C10.6695 12.3991 10.6027 12.3637 10.5111 12.326C10.4195 12.2884 10.3238 12.2614 10.2237 12.2448L6.79988 12.2697C6.45001 12.2697 6.21262 12.349 6.08762 12.5076L6.0376 12.5826C6.0126 12.6244 6 12.6911 6 12.7829C6 12.8747 6.02499 12.9874 6.07502 13.1208C6.57483 14.2973 7.11838 15.4319 7.70564 16.5249C8.29291 17.6179 8.80323 18.4983 9.2363 19.1654C9.66946 19.8329 10.111 20.463 10.5609 21.0552C11.0107 21.6476 11.3085 22.0273 11.4542 22.1941C11.6001 22.3612 11.7147 22.4861 11.798 22.5695L12.1104 22.8698C12.3104 23.0701 12.6039 23.31 12.9913 23.5894C13.3788 23.869 13.8078 24.1443 14.2784 24.4157C14.7492 24.6866 15.2968 24.9077 15.9217 25.0787C16.5465 25.2499 17.1546 25.3186 17.7461 25.2855H19.1831C19.4746 25.2602 19.6954 25.1685 19.8455 25.01L19.8952 24.9473C19.9286 24.8975 19.9599 24.8201 19.9888 24.716C20.018 24.6118 20.0326 24.4969 20.0326 24.3719C20.024 24.0132 20.0513 23.6899 20.1136 23.4021C20.1759 23.1144 20.2469 22.8974 20.3263 22.7513C20.4056 22.6054 20.4952 22.4822 20.5948 22.3823C20.6947 22.2823 20.7659 22.2216 20.8076 22.2008C20.8491 22.1798 20.8822 22.1655 20.9072 22.157C21.1072 22.0903 21.3425 22.1549 21.6135 22.3511C21.8842 22.5472 22.1382 22.7893 22.3758 23.077C22.6132 23.365 22.8985 23.6881 23.2317 24.0468C23.565 24.4056 23.8565 24.6724 24.1063 24.8479L24.3562 24.998C24.523 25.0982 24.7396 25.19 25.0062 25.2734C25.2724 25.3568 25.5056 25.3777 25.7058 25.336L28.9046 25.286C29.221 25.286 29.4672 25.2336 29.6418 25.1294C29.8168 25.0252 29.9207 24.9103 29.9543 24.7853C29.9877 24.6602 29.9895 24.5183 29.9606 24.3596C29.931 24.2013 29.9018 24.0906 29.8727 24.0281Z" fill="white"/>
</svg>
