<svg width="36" height="37" viewBox="0 0 36 37" fill="none" xmlns="http://www.w3.org/2000/svg">
<path d="M18.4245 25.0928L14.4905 25.0209C13.2168 24.9959 11.9398 25.0459 10.6911 24.7865C8.79142 24.3991 8.65684 22.4993 8.51602 20.9057C8.32198 18.6654 8.3971 16.3844 8.76328 14.1627C8.96999 12.9162 9.78352 12.1723 11.0416 12.0914C15.2886 11.7976 19.5638 11.8324 23.8013 11.9695C24.2488 11.982 24.6995 12.0507 25.1407 12.1289C27.3191 12.5101 27.3722 14.663 27.5134 16.4753C27.6542 18.3063 27.5948 20.1467 27.3256 21.9653C27.1097 23.471 26.6965 24.7337 24.953 24.8556C22.7684 25.015 20.6339 25.1433 18.4432 25.1024C18.4433 25.0928 18.4307 25.0928 18.4245 25.0928ZM16.1117 21.2807C17.7579 20.337 19.3728 19.409 21.0096 18.4717C19.3603 17.5279 17.7485 16.6 16.1117 15.6626V21.2807Z" fill="white"/>
</svg>
