<svg width="1857" height="525" viewBox="0 0 1857 525" fill="none" xmlns="http://www.w3.org/2000/svg">
<path d="M-1.64771 387.778C134.935 298.391 270.157 212.118 436.368 137.954C482.13 117.535 582.069 66.1693 597.765 96.9724C604.14 109.484 599.152 123.023 595.823 135.87C584.634 179.054 562.542 212.452 532.17 253.026C499.494 296.681 455.316 337.492 423.422 381.296C411.843 397.197 399.635 415.825 400.334 433.275C401.027 450.555 427.106 465.433 458.593 468.121C520.239 473.383 590.897 448.52 636.173 429.455C696.609 404.005 729.256 370.538 775.561 339.156C789.802 329.505 782.957 347.26 782.897 352.585C782.671 372.644 772.198 398.051 786.349 417.183C792.54 425.554 808.36 434.841 826.698 432.117C862.781 426.756 903.493 407.33 930.485 395.882C1024.15 356.157 1112.36 312.995 1192.86 265.645C1280.61 214.035 1356.01 157.716 1435.39 102.529C1459.65 85.6661 1512.08 41.2989 1526.23 61.2009C1540.49 81.2605 1525.5 113.961 1519.54 133.787C1509.34 167.768 1493.16 201.149 1479.41 234.735C1464.6 270.88 1450.52 307.09 1470.35 343.555C1486.21 372.729 1519.78 341.92 1540.69 329.432C1622.57 280.534 1704.98 231.366 1775.02 177.315C1804.8 154.328 1833.73 130.689 1859.6 106.35C1870.42 96.1618 1864.85 101.377 1866.51 96.0465" stroke="#379FEC" stroke-width="111" stroke-linecap="round"/>
</svg>
