<svg width="100" height="104" viewBox="0 0 100 104" fill="none" xmlns="http://www.w3.org/2000/svg">
<g opacity="0.2">
<g filter="url(#filter0_d_2066_6395)">
<path d="M46.5171 15.7249C42.8904 7.17128 32.6355 2.20484 22.1567 4.01673C9.93143 6.1306 1.49681 16.5044 3.34109 27.1706C3.92453 30.4812 5.44297 33.5576 7.72125 36.045L6.7183 45.7706C6.67524 46.2508 6.76708 46.7328 6.98368 47.1636C7.20028 47.5943 7.53323 47.9571 7.94578 48.2118C8.47278 48.5547 9.10727 48.6991 9.73433 48.6189C10.0836 48.5579 10.4172 48.428 10.7153 48.2371L19.5608 42.5683C22.6191 43.1631 25.7644 43.1949 28.8389 42.6622C41.0642 40.5483 49.4988 30.1745 47.6545 19.5083C47.4311 18.2059 47.0492 16.9355 46.5171 15.7249Z" fill="#404040"/>
<path d="M18.31 24.2677C18.5695 25.7682 17.5635 27.1948 16.063 27.4543C14.5626 27.7137 13.136 26.7077 12.8765 25.2073C12.6171 23.7068 13.6231 22.2802 15.1235 22.0207C16.624 21.7613 18.0506 22.7673 18.31 24.2677Z" fill="white"/>
<path d="M28.0904 22.5766C28.3498 24.0771 27.3438 25.5037 25.8434 25.7631C24.343 26.0226 22.9163 25.0166 22.6569 23.5161C22.3974 22.0157 23.4034 20.5891 24.9039 20.3296C26.4043 20.0702 27.8309 21.0762 28.0904 22.5766Z" fill="white"/>
<path d="M37.8707 20.8855C38.1302 22.3859 37.1241 23.8126 35.6237 24.072C34.1233 24.3315 32.6966 23.3254 32.4372 21.825C32.1778 20.3246 33.1838 18.8979 34.6842 18.6385C36.1846 18.3791 37.6113 19.3851 37.8707 20.8855Z" fill="white"/>
</g>
</g>
<g opacity="0.2">
<g filter="url(#filter1_d_2066_6395)">
<path d="M49.9975 64.7249C53.6242 56.1713 63.8791 51.2048 74.3579 53.0167C86.5832 55.1306 95.0178 65.5044 93.1736 76.1706C92.5901 79.4812 91.0717 82.5576 88.7934 85.045L89.7964 94.7706C89.8394 95.2508 89.7476 95.7328 89.531 96.1636C89.3144 96.5943 88.9814 96.9571 88.5689 97.2118C88.0419 97.5547 87.4074 97.6991 86.7803 97.6189C86.431 97.5579 86.0974 97.428 85.7994 97.2371L76.9539 91.5683C73.8955 92.1631 70.7503 92.1949 67.6758 91.6622C55.4505 89.5483 47.0158 79.1745 48.8601 68.5083C49.0835 67.2059 49.4654 65.9355 49.9975 64.7249Z" fill="#404040"/>
<path d="M78.2046 73.2677C77.9452 74.7682 78.9512 76.1948 80.4516 76.4543C81.952 76.7137 83.3787 75.7077 83.6381 74.2073C83.8976 72.7068 82.8915 71.2802 81.3911 71.0207C79.8907 70.7613 78.464 71.7673 78.2046 73.2677Z" fill="white"/>
<path d="M68.4243 71.5766C68.1648 73.0771 69.1708 74.5037 70.6713 74.7631C72.1717 75.0226 73.5983 74.0166 73.8578 72.5161C74.1172 71.0157 73.1112 69.5891 71.6108 69.3296C70.1104 69.0702 68.6837 70.0762 68.4243 71.5766Z" fill="white"/>
<path d="M58.6439 69.8855C58.3845 71.3859 59.3905 72.8126 60.8909 73.072C62.3914 73.3315 63.818 72.3254 64.0775 70.825C64.3369 69.3246 63.3309 67.8979 61.8304 67.6385C60.33 67.3791 58.9034 68.3851 58.6439 69.8855Z" fill="white"/>
</g>
</g>
<defs>
<filter id="filter0_d_2066_6395" x="3.08789" y="3.64545" width="50.8193" height="50.9951" filterUnits="userSpaceOnUse" color-interpolation-filters="sRGB">
<feFlood flood-opacity="0" result="BackgroundImageFix"/>
<feColorMatrix in="SourceAlpha" type="matrix" values="0 0 0 0 0 0 0 0 0 0 0 0 0 0 0 0 0 0 127 0" result="hardAlpha"/>
<feOffset dx="6" dy="6"/>
<feComposite in2="hardAlpha" operator="out"/>
<feColorMatrix type="matrix" values="0 0 0 0 0.833333 0 0 0 0 0.833333 0 0 0 0 0.833333 0 0 0 1 0"/>
<feBlend mode="normal" in2="BackgroundImageFix" result="effect1_dropShadow_2066_6395"/>
<feBlend mode="normal" in="SourceGraphic" in2="effect1_dropShadow_2066_6395" result="shape"/>
</filter>
<filter id="filter1_d_2066_6395" x="48.6074" y="52.6454" width="50.8193" height="50.9951" filterUnits="userSpaceOnUse" color-interpolation-filters="sRGB">
<feFlood flood-opacity="0" result="BackgroundImageFix"/>
<feColorMatrix in="SourceAlpha" type="matrix" values="0 0 0 0 0 0 0 0 0 0 0 0 0 0 0 0 0 0 127 0" result="hardAlpha"/>
<feOffset dx="6" dy="6"/>
<feComposite in2="hardAlpha" operator="out"/>
<feColorMatrix type="matrix" values="0 0 0 0 0.833333 0 0 0 0 0.833333 0 0 0 0 0.833333 0 0 0 1 0"/>
<feBlend mode="normal" in2="BackgroundImageFix" result="effect1_dropShadow_2066_6395"/>
<feBlend mode="normal" in="SourceGraphic" in2="effect1_dropShadow_2066_6395" result="shape"/>
</filter>
</defs>
</svg>
