<svg width="1797" height="718" viewBox="0 0 1797 718" fill="none" xmlns="http://www.w3.org/2000/svg">
<path d="M80 528.397C199.61 407.53 318.028 290.875 463.584 190.593C503.659 162.983 591.179 93.5281 604.924 135.179C610.507 152.097 606.139 170.404 603.224 187.775C593.425 246.167 574.078 291.327 547.481 346.19C518.865 405.218 480.177 460.402 452.247 519.631C442.107 541.132 431.416 566.321 432.028 589.916C432.635 613.281 455.473 633.399 483.047 637.033C537.032 644.148 598.91 610.53 638.559 584.75C691.485 550.338 720.075 505.085 760.626 462.652C773.097 449.602 767.103 473.609 767.05 480.81C766.852 507.933 757.681 542.287 770.073 568.157C775.495 579.476 789.349 592.034 805.408 588.35C837.007 581.101 872.66 554.834 896.297 539.355C978.321 485.64 1055.57 427.278 1126.07 363.252C1202.91 293.467 1268.94 217.315 1338.46 142.693C1359.7 119.891 1405.62 59.8993 1418.01 86.81C1430.5 113.934 1417.37 158.15 1412.15 184.958C1403.22 230.906 1389.05 276.043 1377.01 321.457C1364.04 370.331 1351.71 419.293 1369.07 468.6C1382.96 508.048 1412.36 466.389 1430.67 449.503C1502.38 383.385 1574.55 316.901 1635.88 243.815C1661.96 212.733 1687.3 180.77 1709.95 147.859C1719.43 134.083 1714.55 141.135 1716 133.927" stroke="#CB2F2F" stroke-width="160" stroke-linecap="round"/>
</svg>
