<svg width="48" height="49" viewBox="0 0 48 49" fill="none" xmlns="http://www.w3.org/2000/svg">
<g opacity="0.2" filter="url(#filter0_d_267_4487)">
<path d="M18.1973 0.493282C17.5581 0.603935 16.9636 0.894286 16.4833 1.33038C16.0031 1.76648 15.6569 2.33029 15.4853 2.9559L12.6837 13.1625L3.08357 16.355C2.48772 16.5541 1.95831 16.9136 1.55352 17.3941C1.14874 17.8745 0.88426 18.4573 0.789163 19.0783C0.694066 19.6993 0.772032 20.3345 1.01449 20.914C1.25695 21.4936 1.65451 21.9951 2.16348 22.3634L10.6847 28.5318L10.7825 39.3241C10.7886 39.965 10.9749 40.5913 11.3201 41.1313C11.6653 41.6713 12.1555 42.1034 12.7346 42.3781C13.3137 42.6528 13.9584 42.7591 14.595 42.6848C15.2316 42.6104 15.8345 42.3586 16.3347 41.9579L24.2688 35.607L33.8901 38.9536C34.4961 39.164 35.1491 39.1995 35.7744 39.0561C36.3996 38.9127 36.9719 38.5962 37.4256 38.1427C37.8794 37.6893 38.1963 37.1173 38.3402 36.4921C38.484 35.867 38.449 35.2139 38.239 34.6078L34.7067 24.4059L40.6554 15.7667C41.012 15.2495 41.2192 14.644 41.2541 14.0168C41.289 13.3895 41.1503 12.7647 40.8531 12.2112C40.556 11.6577 40.1121 11.1968 39.57 10.8792C39.028 10.5616 38.4089 10.3996 37.7807 10.411L27.6597 10.6008L21.5788 1.90226C21.2071 1.37061 20.6917 0.955769 20.0929 0.706258C19.4941 0.456747 18.8366 0.382875 18.1973 0.493282Z" fill="#2E2E2E"/>
</g>
<defs>
<filter id="filter0_d_267_4487" x="0.75" y="0.443359" width="46.5098" height="48.2644" filterUnits="userSpaceOnUse" color-interpolation-filters="sRGB">
<feFlood flood-opacity="0" result="BackgroundImageFix"/>
<feColorMatrix in="SourceAlpha" type="matrix" values="0 0 0 0 0 0 0 0 0 0 0 0 0 0 0 0 0 0 127 0" result="hardAlpha"/>
<feOffset dx="6" dy="6"/>
<feComposite in2="hardAlpha" operator="out"/>
<feColorMatrix type="matrix" values="0 0 0 0 0.833333 0 0 0 0 0.833333 0 0 0 0 0.833333 0 0 0 1 0"/>
<feBlend mode="normal" in2="BackgroundImageFix" result="effect1_dropShadow_267_4487"/>
<feBlend mode="normal" in="SourceGraphic" in2="effect1_dropShadow_267_4487" result="shape"/>
</filter>
</defs>
</svg>
