<svg width="1797" height="718" viewBox="0 0 1797 718" fill="none" xmlns="http://www.w3.org/2000/svg">
<path d="M1717 528.397C1597.39 407.53 1478.97 290.875 1333.42 190.593C1293.34 162.983 1205.82 93.5281 1192.08 135.179C1186.49 152.097 1190.86 170.404 1193.78 187.775C1203.58 246.167 1222.92 291.327 1249.52 346.19C1278.14 405.218 1316.82 460.402 1344.75 519.631C1354.89 541.132 1365.58 566.321 1364.97 589.916C1364.37 613.281 1341.53 633.399 1313.95 637.033C1259.97 644.148 1198.09 610.53 1158.44 584.75C1105.52 550.338 1076.93 505.085 1036.37 462.652C1023.9 449.602 1029.9 473.609 1029.95 480.81C1030.15 507.933 1039.32 542.287 1026.93 568.157C1021.5 579.476 1007.65 592.034 991.592 588.35C959.993 581.101 924.34 554.834 900.703 539.355C818.679 485.64 741.432 427.278 670.93 363.252C594.087 293.467 528.056 217.315 458.542 142.693C437.301 119.891 391.382 59.8993 378.991 86.81C366.501 113.934 379.635 158.15 384.848 184.958C393.784 230.906 407.946 276.043 419.995 321.457C432.961 370.331 445.291 419.293 427.931 468.6C414.042 508.048 384.644 466.389 366.331 449.503C294.622 383.385 222.45 316.901 161.122 243.815C135.041 212.733 109.696 180.77 87.0511 147.859C77.5721 134.083 82.4546 141.135 81.0045 133.927" stroke="#D3ECFF" stroke-width="160" stroke-linecap="round"/>
</svg>
