<svg width="474" height="227" viewBox="0 0 474 227" fill="none" xmlns="http://www.w3.org/2000/svg">
<path fill-rule="evenodd" clip-rule="evenodd" d="M30.3861 1.68723H1.60352V131.122H19.7412V39.5984L35.1598 131.122H54.712L69.0027 38.2905V131.122H88.5731V1.68723H59.7113L45.6005 93.5848L30.3861 1.68723ZM122.535 31.4156C122.535 22.1763 126.668 18.652 133.259 18.652C139.85 18.652 143.962 22.1763 143.962 31.4156V101.31C143.962 110.569 139.929 114.074 133.259 114.074C126.586 114.074 122.535 110.569 122.535 101.31V31.5317V31.4156ZM101.837 100.028C101.837 120.736 112.942 132.566 133.259 132.566C153.573 132.566 164.66 120.678 164.66 100.028V32.6399C164.66 11.9319 153.555 0.102201 133.259 0.102201C112.96 0.102201 101.837 11.9898 101.837 32.6399V100.028ZM175.384 32.6399C175.384 69.6423 215.815 74.6164 215.815 101.252C215.815 110.511 211.663 113.835 205.09 113.835C198.521 113.835 194.369 110.511 194.369 101.252V92.0193H174.817V99.9442C174.817 120.659 185.34 132.488 205.657 132.488C225.972 132.488 236.495 120.594 236.495 99.9442C236.495 62.9675 196.061 57.9677 196.061 31.332C196.061 22.0989 199.832 18.5746 206.401 18.5746C212.974 18.5746 216.741 22.0989 216.741 31.332V36.7055H236.312V32.6204C236.312 11.9124 225.972 0.0830078 205.837 0.0830078C185.703 0.0830078 175.384 11.9706 175.384 32.6204V32.6399ZM269.027 75.5509H292.548V131.038H313.609V1.68723H292.548V57.175H269.027V1.68723H248.347V131.122H269.027V75.628V75.5509ZM375.85 131.038H397.091L368.33 59.3014L397.091 1.61015H376.414L349.406 58.09V1.68723H328.646V131.122H349.406V91.3619L355.813 79.4746L375.969 131L375.85 131.038ZM452.44 1.61015H422.207L401.145 131.038H420.152L423.719 107.554H449.114L452.681 131.038H473.562L452.401 1.68723L452.44 1.61015ZM436.314 24.5345L446.292 89.9382H426.358L436.314 24.5345Z" fill="#CDCDCD"/>
<path d="M9.5918 161.479H2.04102V188.235H6.77817V169.313L10.8264 188.235H15.9629L19.7154 169.047V188.235H24.8488V161.479H17.295L13.5912 180.477L9.5918 161.479Z" fill="#CDCDCD"/>
<path d="M50.0567 165.304H59.5005V161.479H44.5879V188.235H59.5005V184.41H50.0567V176.576H57.5617V172.757H50.0567V165.304Z" fill="#CDCDCD"/>
<path d="M94.4566 161.479H89.0183V172.3L82.5315 161.479H77.0444L83.83 172.452L77.0444 188.235H82.6808L87.671 176.347L89.0183 178.412V188.235H94.4566V178.412L95.804 176.385L100.794 188.235H106.431L99.6937 172.338L106.431 161.479H100.944L94.4566 172.3V161.479Z" fill="#CDCDCD"/>
<path d="M145.47 192.119V184.709H143.135V161.479H128.158L126.942 181.2C126.844 182.784 126.555 183.785 125.631 184.709H123.54V192.119H128.744V188.494H140.169V192.119H145.47ZM133.167 165.341H137.691V184.709H130.688C131.563 184.055 132.048 183.169 132.194 181.123L133.167 165.341Z" fill="#CDCDCD"/>
<path d="M182.315 161.479H176.681L174.231 170.775L172.959 177.084L171.292 170.737L168.353 161.479H163.016L170.46 182.389L170.411 182.627C169.972 184.597 168.402 184.99 165.659 184.828V188.627C173.154 189.013 175.261 186.573 176.535 181.694L182.315 161.479Z" fill="#CDCDCD"/>
<path d="M206.159 176.766H212.323V188.235H217.844V161.479H212.323V172.948H206.159V161.479H200.736V188.235H206.159V176.766Z" fill="#CDCDCD"/>
<path d="M249.64 161.479H241.751L236.264 188.235H241.211L242.144 183.381H248.756L249.689 188.235H255.124L249.64 161.479ZM245.427 166.219L248.021 179.752H242.83L245.427 166.219Z" fill="#CDCDCD"/>
<path d="M281.613 161.479H273.55V188.235H279.025V178.183H281.613C287.091 178.183 289.779 175.852 289.779 171.569V168.093C289.779 163.811 287.091 161.479 281.613 161.479ZM281.613 165.304C283.356 165.304 284.301 165.914 284.301 167.827V171.836C284.301 173.748 283.356 174.358 281.613 174.358H279.025V165.304H281.613Z" fill="#CDCDCD"/>
<path d="M313.251 167.569C313.251 165.639 314.349 164.908 316.095 164.908C317.842 164.908 318.94 165.639 318.94 167.569V182.145C318.94 184.075 317.842 184.812 316.095 184.812C314.349 184.812 313.251 184.075 313.251 182.145V167.569ZM307.761 181.875C307.761 186.198 310.706 188.666 316.095 188.666C321.485 188.666 324.43 186.198 324.43 181.875V167.838C324.43 163.516 321.485 161.048 316.095 161.048C310.706 161.048 307.761 163.516 307.761 167.838V181.875Z" fill="#CDCDCD"/>
<path d="M364.784 192.119V184.709H362.404V161.479H347.125L345.885 181.2C345.787 182.784 345.488 183.785 344.546 184.709H342.413V192.119H347.723V188.494H359.377V192.119H364.784ZM352.234 165.341H356.847V184.709H349.704C350.597 184.055 351.094 183.169 351.244 181.123L352.234 165.341Z" fill="#CDCDCD"/>
<path d="M389.067 176.766H395.227V188.235H400.751V161.479H395.227V172.948H389.067V161.479H383.644V188.235H389.067V176.766Z" fill="#CDCDCD"/>
<path d="M432.547 161.479H424.661L419.174 188.235H424.121L425.051 183.381H431.666L432.596 188.235H438.034L432.547 161.479ZM428.334 166.219L430.931 179.752H425.737L428.334 166.219Z" fill="#CDCDCD"/>
<path d="M461.178 188.235C461.48 187.549 461.678 187.123 461.678 184.95V180.744C461.678 178.26 462.778 177.344 465.281 177.344H467.18V188.235H472.682V161.479H464.379C458.678 161.479 456.227 163.506 456.227 167.636V169.739C456.227 172.49 457.377 174.282 459.828 175.165C457.078 176.042 456.179 178.069 456.179 180.858V184.988C456.179 186.284 456.127 187.244 455.578 188.235H461.178ZM467.18 165.304V173.519H465.031C462.98 173.519 461.73 172.834 461.73 170.692V168.055C461.73 166.143 462.58 165.304 464.531 165.304H467.18Z" fill="#CDCDCD"/>
<path d="M4.47604 207.419C4.47604 205.699 5.31433 205.045 6.64646 205.045C7.98164 205.045 8.81689 205.699 8.81689 207.419V220.404C8.81689 222.124 7.98164 222.777 6.64646 222.777C5.31433 222.777 4.47604 222.124 4.47604 220.404V207.419ZM0.287598 220.162C0.287598 224.013 2.53423 226.21 6.64646 226.21C10.7617 226.21 13.0084 224.013 13.0084 220.162V207.66C13.0084 203.809 10.7617 201.612 6.64646 201.612C2.53423 201.612 0.287598 203.809 0.287598 207.66V220.162Z" fill="#CDCDCD"/>
<path d="M28.0047 215.608H32.5863V225.779H36.6925V202.044H32.5863V212.214H28.0047V202.044H23.9717V225.779H28.0047V215.608Z" fill="#CDCDCD"/>
<path d="M46.7783 225.779H47.4185C51.549 225.779 53.2774 224.084 53.4298 219.753L53.878 205.434H57.4841V225.746H61.6909V202.044H50.0096L49.3328 219.953C49.2597 222.157 48.6592 222.395 46.7783 222.395V225.779Z" fill="#CDCDCD"/>
<path d="M82.4836 202.044H76.4295L72.2197 225.779H76.015L76.7313 221.474H81.8068L82.5201 225.779H86.6933L82.4836 202.044ZM79.2493 206.251L81.2429 218.254H77.2556L79.2493 206.251Z" fill="#CDCDCD"/>
<path d="M101.043 225.778H96.7847V202.136H100.479V217.101L101.985 211.9L105.381 202.136H109.941V225.778H106.21V209.13L104.512 214.934L101.043 225.778ZM105.305 196.865C105.192 198.119 104.549 198.421 103.418 198.421C102.327 198.421 101.76 198.119 101.647 196.865H99.0831C99.1593 199.166 100.516 200.619 103.418 200.619C106.36 200.619 107.832 199.166 107.832 196.865H105.305Z" fill="#CDCDCD"/>
<path d="M125.081 215.608H129.821V225.779H134.067V202.044H129.821V212.214H125.081V202.044H120.908V225.779H125.081V215.608Z" fill="#CDCDCD"/>
<path d="M178.804 225.779V202.044H174.722V222.384H171.195V202.044H167.114V222.384H163.587V202.044H159.505V225.779H178.804Z" fill="#CDCDCD"/>
<path d="M199.587 225.779H203.806L198.093 212.621L203.806 202.044H199.697L194.32 212.388V202.044H190.21V225.779H194.32V218.487L195.591 216.318L199.587 225.779Z" fill="#CDCDCD"/>
<path d="M217.941 207.419C217.941 205.699 218.749 205.045 220.035 205.045C221.325 205.045 222.133 205.699 222.133 207.419V220.404C222.133 222.124 221.325 222.777 220.035 222.777C218.749 222.777 217.941 222.124 217.941 220.404V207.419ZM213.896 220.162C213.896 224.013 216.066 226.21 220.035 226.21C224.007 226.21 226.178 224.013 226.178 220.162V207.66C226.178 203.809 224.007 201.612 220.035 201.612C216.066 201.612 213.896 203.809 213.896 207.66V220.162Z" fill="#CDCDCD"/>
<path d="M235.825 225.779H236.465C240.595 225.779 242.324 224.084 242.476 219.753L242.924 205.434H246.531V225.746H250.74V202.044H239.056L238.379 219.953C238.306 222.157 237.706 222.395 235.825 222.395V225.779Z" fill="#CDCDCD"/>
<path d="M271.532 202.044H265.478L261.268 225.779H265.066L265.78 221.474H270.855L271.568 225.779H275.742L271.532 202.044ZM268.298 206.251L270.291 218.254H266.307L268.298 206.251Z" fill="#CDCDCD"/>
<path d="M309.242 225.779H313.464L307.748 212.621L313.464 202.044H309.355L303.974 212.388V202.044H299.865V225.779H303.974V218.487L305.246 216.318L309.242 225.779Z" fill="#CDCDCD"/>
<path d="M327.596 207.419C327.596 205.699 328.404 205.045 329.694 205.045C330.98 205.045 331.788 205.699 331.788 207.419V220.404C331.788 222.124 330.98 222.777 329.694 222.777C328.404 222.777 327.596 222.124 327.596 220.404V207.419ZM323.551 220.162C323.551 224.013 325.722 226.21 329.694 226.21C333.663 226.21 335.833 224.013 335.833 220.162V207.66C335.833 203.809 333.663 201.612 329.694 201.612C325.722 201.612 323.551 203.809 323.551 207.66V220.162Z" fill="#CDCDCD"/>
<path d="M350.968 215.608H355.705V225.779H359.955V202.044H355.705V212.214H350.968V202.044H346.795V225.779H350.968V215.608Z" fill="#CDCDCD"/>
<path d="M370.042 205.438H374.346V225.779H378.462V205.438H382.763V202.044H370.042V205.438Z" fill="#CDCDCD"/>
<path d="M397.037 205.438H404.262V202.044H392.858V225.779H404.262V222.384H397.037V215.434H402.777V212.046H397.037V205.438Z" fill="#CDCDCD"/>
<path d="M418.956 215.608H423.696V225.779H427.946V202.044H423.696V212.214H418.956V202.044H414.786V225.779H418.956V215.608Z" fill="#CDCDCD"/>
<path d="M438.033 205.438H442.334V225.779H446.449V205.438H450.753V202.044H438.033V205.438Z" fill="#CDCDCD"/>
<path d="M469.918 202.044H464.047L459.965 225.779H463.645L464.34 221.474H469.26L469.952 225.779H474L469.918 202.044ZM466.781 206.251L468.714 218.254H464.849L466.781 206.251Z" fill="#CDCDCD"/>
</svg>
