<svg width="48" height="49" viewBox="0 0 48 49" fill="none" xmlns="http://www.w3.org/2000/svg">
<g opacity="0.2" filter="url(#filter0_d_267_4483)">
<path d="M25.2014 1.67319L22.0625 5.05946C19.3104 1.91826 14.9294 0.334498 11.2926 0.446573C6.34346 0.598762 1.58468 4.22329 0.704727 10.4997C-0.222742 17.1152 3.53827 22.7153 7.25813 27.4367C9.11809 29.7972 11.0667 31.9902 12.4621 33.8992C15.253 37.461 15.9706 42.8557 15.9706 42.8557C15.9706 42.8557 19.0271 38.0053 22.2403 35.8426C24.2526 34.5 26.8507 33.059 29.4559 31.4014C34.6665 28.0858 40.1989 23.8544 41.1129 17.3605C42.9692 6.6249 32.3112 4.89909 27.5683 7.92259C29.4196 7.31828 31.278 7.44335 32.854 8.094C35.7478 9.2889 37.8115 12.1997 37.1635 16.804C36.543 21.2095 32.2437 24.8204 27.2646 27.9882C24.7752 29.5719 22.2534 30.9587 20.049 32.4294C18.8783 33.2109 18.2683 33.976 17.3568 34.8382C16.7981 33.6583 16.4924 32.6939 15.651 31.5427C11.7487 25.1767 5.06146 17.88 5.88683 11.2694C6.76795 5.79717 13.4087 5.4643 16.4261 8.47781L12.0118 9.99784C17.758 11.9988 22.3943 15.1704 27.1553 19.4494L25.2014 1.67317L25.2014 1.67319Z" fill="#2E2E2E"/>
</g>
<defs>
<filter id="filter0_d_267_4483" x="0.5625" y="0.440918" width="46.7646" height="48.4148" filterUnits="userSpaceOnUse" color-interpolation-filters="sRGB">
<feFlood flood-opacity="0" result="BackgroundImageFix"/>
<feColorMatrix in="SourceAlpha" type="matrix" values="0 0 0 0 0 0 0 0 0 0 0 0 0 0 0 0 0 0 127 0" result="hardAlpha"/>
<feOffset dx="6" dy="6"/>
<feComposite in2="hardAlpha" operator="out"/>
<feColorMatrix type="matrix" values="0 0 0 0 0.833333 0 0 0 0 0.833333 0 0 0 0 0.833333 0 0 0 1 0"/>
<feBlend mode="normal" in2="BackgroundImageFix" result="effect1_dropShadow_267_4483"/>
<feBlend mode="normal" in="SourceGraphic" in2="effect1_dropShadow_267_4483" result="shape"/>
</filter>
</defs>
</svg>
