<svg width="1600" height="718" viewBox="0 0 1600 718" fill="none" xmlns="http://www.w3.org/2000/svg">
<path opacity="0.4" d="M-38.5 528.395C81.1104 407.528 199.528 290.873 345.084 190.591C385.159 162.981 472.679 93.5262 486.424 135.178C492.007 152.095 487.639 170.402 484.724 187.773C474.925 246.165 455.578 291.325 428.981 346.188C400.365 405.216 361.677 460.4 333.747 519.629C323.607 541.13 312.916 566.319 313.528 589.914C314.135 613.279 336.973 633.397 364.547 637.031C418.532 644.146 480.41 610.528 520.059 584.748C572.985 550.336 601.575 505.083 642.126 462.65C654.597 449.6 648.603 473.607 648.55 480.808C648.352 507.931 639.181 542.285 651.573 568.155C656.995 579.474 670.849 592.032 686.908 588.348C718.507 581.099 754.16 554.832 777.797 539.353C859.821 485.638 937.068 427.276 1007.57 363.25C1084.41 293.465 1150.44 217.313 1219.96 142.691C1241.2 119.889 1287.12 59.8974 1299.51 86.808C1312 113.932 1298.87 158.148 1293.65 184.956C1284.72 230.904 1270.55 276.041 1258.51 321.455C1245.54 370.329 1233.21 419.292 1250.57 468.598C1264.46 508.046 1293.86 466.387 1312.17 449.501C1383.88 383.383 1456.05 316.899 1517.38 243.813C1543.46 212.731 1568.8 180.768 1591.45 147.857C1600.93 134.081 1596.05 141.133 1597.5 133.925" stroke="#E2E2E2" stroke-width="160" stroke-linecap="round"/>
</svg>
