<svg width="20" height="26" viewBox="0 0 20 26" fill="none" xmlns="http://www.w3.org/2000/svg">
<path fill-rule="evenodd" clip-rule="evenodd" d="M9.63477 0.148496C9.72725 0.0549622 9.85285 0.00163171 9.98438 5.86412e-05C10.0513 -0.000967004 10.1178 0.0114708 10.1799 0.036634C10.242 0.0617971 10.2984 0.099173 10.3457 0.146543C12.8716 2.69494 16.0781 3.57338 19.5859 4.32848C19.6979 4.35265 19.7982 4.41452 19.87 4.50375C19.9418 4.59299 19.9808 4.70417 19.9805 4.81871V14.3539C19.9805 17.0435 18.9421 18.9885 17.2109 20.5785C15.634 22.0267 13.5061 23.2229 10.9927 24.6357C10.7468 24.7739 10.4972 24.9142 10.2441 25.057C10.1689 25.0987 10.0841 25.1202 9.99805 25.1195H9.98242C9.89638 25.1202 9.81162 25.0987 9.73633 25.057C9.48324 24.9142 9.23367 24.7739 8.9878 24.6357C6.47442 23.2229 4.34646 22.0267 2.76953 20.5785C1.03834 18.9885 2.08604e-06 17.0435 2.08604e-06 14.3539V4.82262C-0.000328632 4.70808 0.0386734 4.59689 0.110487 4.50766C0.1823 4.41843 0.282571 4.35655 0.394533 4.33238C3.89871 3.57408 7.11242 2.6965 9.63477 0.148496ZM7.25158 12.3275L9.08333 14.1593L12.9976 10.245C13.2742 9.96841 13.7226 9.96841 13.9992 10.245C14.2758 10.5216 14.2758 10.97 13.9992 11.2466L9.79044 15.4553C9.39992 15.8459 8.76675 15.8459 8.37623 15.4553L6.25 13.3291C5.97342 13.0525 5.97342 12.6041 6.25 12.3275C6.52658 12.051 6.975 12.051 7.25158 12.3275Z" fill="white"/>
</svg>
